<?xml version="1.0" encoding="UTF-8"?>
<svg version="1.1" xmlns="http://www.w3.org/2000/svg" width="517" height="614">
<path d="M0 0 C14.56176804 5.60068002 14.56176804 5.60068002 19.625 8.9375 C23.45628794 11.40472126 27.2487185 13.6907744 31.3125 15.75 C42.89052594 21.97783028 53.06180807 30.70124483 62.546875 39.72265625 C64.89887864 41.99888224 64.89887864 41.99888224 67.328125 43.68359375 C67.87984375 44.11800781 68.4315625 44.55242188 69 45 C69 45.66 69 46.32 69 47 C69.66 47 70.32 47 71 47 C71 47.66 71 48.32 71 49 C71.598125 49.268125 72.19625 49.53625 72.8125 49.8125 C74.99847854 50.99917406 76.41332594 52.09599113 78 54 C78 54.66 78 55.32 78 56 C78.5878125 56.25910156 79.175625 56.51820312 79.78125 56.78515625 C82.14917204 58.08167694 83.61635081 59.51667352 85.5 61.4375 C89.57654853 65.04624788 93.03258482 66.11310814 98.296875 67.2109375 C132.44430069 74.48707673 164.37554466 89.53052077 191.36279297 111.6640625 C193.00133047 113.00108564 194.65602703 114.31523843 196.31640625 115.625 C197.32574219 116.429375 198.33507812 117.23375 199.375 118.0625 C200.26960938 118.77535156 201.16421875 119.48820312 202.0859375 120.22265625 C202.71757812 120.80917969 203.34921875 121.39570313 204 122 C204 122.66 204 123.32 204 124 C204.99 124.33 205.98 124.66 207 125 C207 125.66 207 126.32 207 127 C207.66 127 208.32 127 209 127 C209 127.66 209 128.32 209 129 C209.66 129 210.32 129 211 129 C212.375 130.328125 212.375 130.328125 214 132.25 C214.62132812 132.98347656 215.24265625 133.71695313 215.8828125 134.47265625 C216.58148438 135.30667969 217.28015625 136.14070312 218 137 C218.78117187 137.90621094 219.56234375 138.81242188 220.3671875 139.74609375 C228.9370713 149.79768644 236.54102501 160.45630001 243 172 C243.36206543 172.64646484 243.72413086 173.29292969 244.09716797 173.95898438 C264.89950633 211.42163968 273.16250103 251.23847017 273.14526367 293.91796875 C273.14826643 295.43442363 273.15167146 296.95087776 273.15544128 298.46733093 C273.16416189 302.53084478 273.16661398 306.5943375 273.16725707 310.6578598 C273.16797325 313.20348829 273.17011794 315.74911158 273.17275429 318.29473877 C273.18196084 327.19340348 273.18609419 336.09205334 273.18530273 344.99072266 C273.18469989 353.26154649 273.19530419 361.53230556 273.2110464 369.80311298 C273.22413285 376.93471487 273.22948632 384.06629556 273.22884732 391.19790936 C273.22859311 395.44457482 273.23140334 399.69118229 273.24202538 403.93783569 C273.25172764 407.92379652 273.25177103 411.909644 273.24450874 415.8956089 C273.24346628 417.35324075 273.24580562 418.81087976 273.2518692 420.26849937 C273.3261846 439.3761365 273.3261846 439.3761365 267 447 C260.55784683 452.6341304 253.35381444 456.98871642 246 461.3125 C244.89422607 461.96911621 243.78845215 462.62573242 242.64916992 463.30224609 C239.43647949 465.2078457 236.21908391 467.10522606 233 469 C231.45436096 469.91264844 229.90877953 470.82539446 228.36328125 471.73828125 C225.67164102 473.32568332 222.97738975 474.90853466 220.28125 476.48828125 C215.2841666 479.4169964 210.29835778 482.36472704 205.3125 485.3125 C203.44270933 486.41797044 201.57291766 487.52343917 199.703125 488.62890625 C198.76533203 489.18336426 197.82753906 489.73782227 196.86132812 490.30908203 C193.98638839 492.00804386 191.11051781 493.70541949 188.234375 495.40234375 C179.60336965 500.49583381 170.97954008 505.59933873 162.39306641 510.76757812 C156.49957152 514.31045104 150.57013993 517.7913086 144.640625 521.2734375 C132.43646316 528.44087741 120.24854321 535.63440997 108.125 542.9375 C99.88975583 547.89682332 91.5932498 552.74542146 83.28051758 557.57348633 C76.98259148 561.23894862 70.71798584 564.9548038 64.47753906 568.71728516 C60.33042511 571.21694178 56.17375216 573.70050465 52.01757812 576.18505859 C49.03747876 577.97745817 46.07355538 579.79471384 43.109375 581.61328125 C41.26108911 582.72247545 39.4121622 583.83060241 37.5625 584.9375 C36.33043823 585.70924561 36.33043823 585.70924561 35.07348633 586.49658203 C29.34681997 589.87611928 24.63273202 590.91252968 18 590 C13.79136692 588.44124701 10.80924819 586.51156023 8 583 C6.03860222 578.27872842 5.71245917 573.94528441 5.73498535 568.90052795 C5.72841345 567.70202364 5.72841345 567.70202364 5.72170877 566.47930712 C5.70941884 563.8104474 5.71119489 561.14178507 5.71289062 558.47290039 C5.70686412 556.55548818 5.69993929 554.63807861 5.69218445 552.72067261 C5.6773042 548.59394112 5.66854824 544.46725795 5.66447449 540.34050179 C5.65774915 533.80389219 5.63597779 527.26738539 5.61193848 520.7308197 C5.56297882 506.84140395 5.53069247 492.9519663 5.5 479.0625 C5.46687627 464.09723192 5.43076433 449.13200409 5.37586927 434.16679758 C5.35264138 427.68135194 5.33880957 421.19597724 5.33237457 414.71049416 C5.32639429 410.65628054 5.31226137 406.60212359 5.29603004 402.5479393 C5.2902026 400.68206336 5.2876716 398.81617342 5.28886986 396.95028877 C5.29972039 373.2952341 2.8526398 352.39505767 -14.0625 334.3125 C-29.55700697 319.39423502 -47.94807658 315.70699198 -68.85460663 315.72560501 C-71.29648089 315.72658749 -73.73793513 315.71342816 -76.17974854 315.69662476 C-83.11361501 315.65087209 -90.04743256 315.6257855 -96.98144531 315.61914062 C-101.24896072 315.61406958 -105.51603058 315.58954798 -109.78339386 315.55381393 C-111.38897247 315.54415063 -112.99461341 315.54160852 -114.6002121 315.54698563 C-128.45512932 315.59121548 -141.95491184 313.92755799 -154.375 307.25 C-155.36294556 306.73675171 -155.36294556 306.73675171 -156.37084961 306.21313477 C-162.13413965 303.12210174 -167.17464254 299.41948627 -172 295 C-172.89525391 294.20722656 -172.89525391 294.20722656 -173.80859375 293.3984375 C-193.50105526 274.93391239 -203.75884912 248.28899545 -212.625 223.4375 C-212.98029785 222.45563721 -213.3355957 221.47377441 -213.70166016 220.4621582 C-214.01925293 219.54523193 -214.3368457 218.62830566 -214.6640625 217.68359375 C-214.94717285 216.87462646 -215.2302832 216.06565918 -215.52197266 215.23217773 C-216.05779149 212.73013913 -215.96605091 211.36052721 -215 209 C-208.76977904 205.57286696 -201.34266751 203.77132748 -194.5625 201.69140625 C-186.89689335 199.31723666 -179.30622555 196.75266678 -171.72460938 194.12426758 C-167.91347876 192.80354041 -164.09945251 191.49123955 -160.28515625 190.1796875 C-159.11885178 189.77861786 -159.11885178 189.77861786 -157.9289856 189.3694458 C-149.46978146 186.46606788 -140.98315402 183.6464623 -132.4928894 180.83547974 C-124.39722394 178.15414338 -116.31753373 175.43225103 -108.2578125 172.64453125 C-107.44991272 172.36547943 -106.64201294 172.08642761 -105.80963135 171.79891968 C-101.88066143 170.44115098 -97.95362533 169.07815668 -94.02929688 167.70703125 C-92.61594158 167.21728582 -91.20253294 166.72769427 -89.7890625 166.23828125 C-88.54850098 165.80555908 -87.30793945 165.37283691 -86.02978516 164.92700195 C-83 164 -83 164 -80 164 C-79.75507813 163.319375 -79.51015625 162.63875 -79.2578125 161.9375 C-77.75693801 158.43235212 -75.86092957 155.24360107 -73.875 152 C-73.47684082 151.34354492 -73.07868164 150.68708984 -72.66845703 150.01074219 C-71.44978549 148.00459903 -70.22552733 146.00196076 -69 144 C-68.46052734 143.11538086 -68.46052734 143.11538086 -67.91015625 142.21289062 C-66.25392101 139.49728982 -64.58818794 136.78813565 -62.91015625 134.0859375 C-61.63023839 132.01817654 -60.36730624 129.93981046 -59.12109375 127.8515625 C-58.22583984 126.37816406 -58.22583984 126.37816406 -57.3125 124.875 C-56.79300781 124.00617188 -56.27351562 123.13734375 -55.73828125 122.2421875 C-52.17794848 117.64975827 -46.71823164 115.90767736 -41.5 113.6875 C-36.39891259 111.49174103 -31.33677455 109.2433243 -26.3125 106.875 C-18.06499962 103.03847619 -9.625651 99.875217 -1 97 C-0.67 64.99 -0.34 32.98 0 0 Z M30 54 C30 75.78 30 97.56 30 120 C25.01459533 122.49270234 20.22077968 124.82413397 15.10546875 126.953125 C14.4795282 127.21436661 13.85358765 127.47560822 13.2086792 127.74476624 C11.88306925 128.29773947 10.55698056 128.84956632 9.23043823 129.40029907 C7.15813235 130.26221462 5.08866988 131.13066314 3.01977539 132.00073242 C-2.97731234 134.51876445 -8.9746406 137.01482632 -15.046875 139.34765625 C-15.91078857 139.68700195 -16.77470215 140.02634766 -17.66479492 140.37597656 C-19.19881245 140.97515091 -20.74026621 141.55582736 -22.2902832 142.11230469 C-31.87639884 145.90261409 -35.95813562 156.06329443 -40.8125 164.5625 C-42.5640992 167.6083253 -44.31886223 170.64934677 -46.11499023 173.66918945 C-47.47178787 176.06664965 -48.65317163 178.37540232 -49.79321289 180.86791992 C-53.59149992 188.73381166 -57.23060911 193.09058654 -65.58203125 196.10546875 C-68.96712891 197.22910027 -72.38214214 198.21265837 -75.8125 199.1875 C-77.6298138 199.74876967 -79.44539619 200.31567358 -81.25927734 200.88793945 C-84.98109689 202.05537264 -88.70975126 203.1947317 -92.44677734 204.3125 C-100.28340999 206.67106993 -108.03214977 209.28782512 -115.78622437 211.90249634 C-118.07586071 212.67100653 -120.36880764 213.42859042 -122.66333008 214.18237305 C-123.37748581 214.4179895 -124.09164154 214.65360596 -124.82743835 214.8963623 C-126.73498231 215.52546478 -128.64310208 216.15282052 -130.55126953 216.7800293 C-134.14697147 218.0519904 -137.5644834 219.34167831 -141 221 C-142.26513285 223.56578053 -142.26513285 223.56578053 -142.5625 226.5625 C-144.89916935 238.21769412 -151.28700925 245.52467283 -161 252 C-157.35944118 262.01153674 -148.71374665 271.1377337 -139.53515625 276.41796875 C-133.3522573 279.26765762 -127.79717806 280.12122289 -120.98510742 280.17358398 C-119.95454727 280.1836145 -119.95454727 280.1836145 -118.90316772 280.19384766 C-117.41582667 280.20785287 -115.92846469 280.21976116 -114.44109154 280.22979546 C-112.07127323 280.24633237 -109.7016055 280.2695821 -107.3318634 280.29469299 C-100.59509958 280.36506417 -93.85826974 280.42503919 -87.12133789 280.47680664 C-82.99166631 280.50901124 -78.86216265 280.55039527 -74.73262978 280.59700203 C-73.17450362 280.61279311 -71.61633889 280.62521696 -70.05815697 280.63390923 C-38.65458315 280.8114135 -12.24840164 288.7383314 11.1640625 310.10546875 C13.81614634 312.84219356 15.84438157 315.86455502 18 319 C18.66 319 19.32 319 20 319 C20.27199219 319.74121094 20.54398438 320.48242188 20.82421875 321.24609375 C21.932801 323.84260698 23.15544848 325.79334501 24.8125 328.0625 C36.46639942 345.21726678 39.29342595 365.93015216 39.31884766 386.12963867 C39.32816199 387.83567776 39.33833286 389.54171236 39.34928894 391.2477417 C39.37643343 395.84817378 39.39169189 400.4485755 39.40471697 405.04906631 C39.42041603 409.86838342 39.44718443 414.68763917 39.4727478 419.50691223 C39.51941616 428.61905107 39.55621785 437.73120162 39.58942068 446.84339839 C39.62772675 457.22317968 39.67711453 467.60289916 39.72740483 477.98262823 C39.83054693 499.32170642 39.91986463 520.66082381 40 542 C40.96453598 541.44860352 41.92907196 540.89720703 42.9228363 540.32910156 C44.19912488 539.59960532 45.4754159 538.87011335 46.75170898 538.140625 C47.38615685 537.77791504 48.02060471 537.41520508 48.67427826 537.04150391 C51.77050177 535.27190941 54.86784991 533.50449562 57.97265625 531.75 C66.35198086 527.00418783 74.56138246 522.01370721 82.73339844 516.91943359 C84.46680487 515.84002476 86.20211466 514.76372344 87.9375 513.6875 C88.95714844 513.05199219 89.97679687 512.41648437 91.02734375 511.76171875 C94 510 94 510 97.31640625 508.39453125 C100.10527541 507.27899101 100.10527541 507.27899101 101 505 C101.09963006 502.62867552 101.13899196 500.28661544 101.13371277 497.91494751 C101.13597833 497.17693795 101.13824388 496.43892838 101.14057809 495.67855489 C101.14693447 493.19275138 101.14608768 490.70700217 101.14526367 488.22119141 C101.14825416 486.4441572 101.15165643 484.66712364 101.15544128 482.89009094 C101.16429708 478.05331473 101.16662007 473.2165562 101.16725707 468.37977266 C101.16820499 464.34635968 101.17188196 460.31295085 101.17542917 456.27953947 C101.18357984 446.76545908 101.18601285 437.25138816 101.18530273 427.73730469 C101.18470187 417.91368373 101.19525392 408.09011767 101.2110464 398.26651061 C101.22411006 389.84099716 101.22948712 381.41550169 101.22884732 372.98997819 C101.22859198 367.95404977 101.23146332 362.9181701 101.24202538 357.88225174 C101.25168655 353.14630549 101.25179918 348.4104548 101.24450874 343.67450523 C101.24346041 341.9346204 101.24584048 340.19472967 101.2518692 338.45485497 C101.2595571 336.08279654 101.25496571 333.71107076 101.24723816 331.33901978 C101.2549535 330.30215072 101.2549535 330.30215072 101.26282471 329.24433482 C101.23693921 325.65754772 100.95095509 323.0542241 99 320 C98.45174561 320.30180176 97.90349121 320.60360352 97.33862305 320.91455078 C77.20834947 331.99454398 77.20834947 331.99454398 68 337 C69.19035903 333.61687432 70.22922163 331.46908446 72.9375 329.125 C91.48719348 311.3050046 106.19275573 284.21923585 114.31005859 260.04980469 C114.77910631 258.65627155 115.2590215 257.26635919 115.74853516 255.87988281 C123.77802711 233.12880808 127.18765674 209.85045998 127.18530273 185.8137207 C127.18748057 183.33462107 127.20567429 180.85597402 127.22460938 178.37695312 C127.99802036 158.55583822 127.99802036 158.55583822 120.4375 141.1875 C119.05377179 139.78770618 119.05377179 139.78770618 117 140 C116.34 138.68 115.68 137.36 115 136 C114.34 136 113.68 136 113 136 C112.72631151 135.4014108 112.45262302 134.8028216 112.17064095 134.18609333 C111.03865241 132.07218077 109.95514098 130.70599734 108.26974487 129.02250671 C107.7148085 128.46337585 107.15987213 127.904245 106.58811951 127.32817078 C105.98137894 126.72704971 105.37463837 126.12592865 104.74951172 125.5065918 C104.10858078 124.86376251 103.46764984 124.22093323 102.80729675 123.55862427 C100.68628255 121.43390479 98.55814927 119.31647548 96.4296875 117.19921875 C94.94918959 115.7199136 93.46906187 114.24023788 91.98928833 112.76020813 C88.88363805 109.65612264 85.7746563 106.55542628 82.66308594 103.45727539 C78.69045448 99.50156686 74.72436975 95.53937532 70.76057243 91.5748167 C67.70152067 88.51603813 64.63985934 85.45988284 61.57733536 82.40458107 C60.11523573 80.94564726 58.65372657 79.48612144 57.19283676 78.02597618 C55.14000115 75.97533023 53.08389183 73.92802283 51.02685547 71.8815918 C50.43226028 71.28654343 49.8376651 70.69149506 49.22505188 70.07841492 C41.38920394 61.984751 41.38920394 61.984751 32 56 C32 55.34 32 54.68 32 54 C31.34 54 30.68 54 30 54 Z M165.3125 274.25 C164.549375 275.1575 163.78625 276.065 163 277 C162.42378906 277.63679688 161.84757812 278.27359375 161.25390625 278.9296875 C155.63714488 285.49230682 153.00173563 292.40356271 152.6875 301.0625 C153.61558978 312.75643117 156.91849781 322.05368559 166 330 C166.55429687 330.34804688 167.10859375 330.69609375 167.6796875 331.0546875 C169.375 332.1875 169.375 332.1875 172 335 C172.55393121 342.77931383 169.77378124 351.19224753 168.05859375 358.70703125 C167.61991493 360.66803472 167.18124191 362.6290395 166.74291325 364.59012127 C165.97935604 367.9986907 165.2080665 371.40550962 164.4375 374.8125 C163.51318825 378.90148601 162.59048637 382.99080449 161.67579651 387.08195496 C161.10767198 389.62060683 160.53471889 392.15818405 159.95640564 394.6945343 C159.57084251 396.41738899 159.57084251 396.41738899 159.17749023 398.17504883 C158.94956284 399.18191238 158.72163544 400.18877594 158.48680115 401.22615051 C157.85595425 404.35141583 157.85595425 404.35141583 158 409 C179.45 409 200.9 409 223 409 C221.63875 402.626875 220.2775 396.25375 218.875 389.6875 C218.43148193 387.61082031 217.98796387 385.53414063 217.53100586 383.39453125 C215.74457437 375.04668311 213.95090365 366.70133769 212.06640625 358.375 C211.78748535 357.14048096 211.50856445 355.90596191 211.22119141 354.6340332 C210.71135945 352.39188438 210.19695311 350.15076915 209.67724609 347.91088867 C209.45246582 346.9232251 209.22768555 345.93556152 208.99609375 344.91796875 C208.70496704 343.66149536 208.70496704 343.66149536 208.40795898 342.37963867 C207.9787547 339.87607546 207.92801893 337.53514502 208 335 C208.66 334.67 209.32 334.34 210 334 C210 333.34 210 332.68 210 332 C210.5775 331.7525 211.155 331.505 211.75 331.25 C219.34220082 327.03211065 223.63510561 319.07003508 226 311 C228.24030018 301.00947218 226.71678887 291.58739237 221.64453125 282.59765625 C214.96397148 273.26636499 206.34786463 267.66609195 195.17578125 265.296875 C184.45792761 263.83447486 173.54765646 267.35545041 165.3125 274.25 Z " fill="#030303" transform="translate(225,14)"/>
<path d="M0 0 C6.31086426 3.67811107 9.87945173 8.3932276 12.3125 15.25 C13.33943503 22.02777121 12.28795743 28.04922413 9.625 34.3125 C5.9340002 38.90131056 1.2385334 42.4413222 -4.375 44.3125 C-11.78897958 44.98250408 -18.29063452 44.95726115 -24.375 40.3125 C-30.06486799 34.95284756 -32.69973581 29.5536348 -33.3984375 21.77734375 C-33.33313798 14.91001108 -30.92061939 8.7327629 -26.16015625 3.78515625 C-18.77166594 -2.30994407 -8.81864581 -4.06886671 0 0 Z " fill="#070707" transform="translate(251.375,175.6875)"/>
<path d="M0 0 C3.30158825 3.30158825 3.34539285 4.20150226 3.36107081 8.64804 C3.34844134 9.42138208 3.33581187 10.19472416 3.32279968 10.99150085 C3.3212794 11.81485815 3.31975913 12.63821545 3.31819278 13.48652297 C3.30939827 16.25520165 3.27900563 19.02322644 3.2487793 21.79174805 C3.23807493 23.77245436 3.22869702 25.75316823 3.22055054 27.73388672 C3.19462084 33.12005085 3.15006495 38.50592102 3.10225272 43.89192939 C3.05545402 49.51731075 3.02566284 55.14278103 2.99409485 60.76826477 C2.93169551 71.42493413 2.85392256 82.08143407 2.77067453 92.73795873 C2.67665795 104.86831792 2.59970623 116.99876638 2.52421319 129.12925279 C2.36851142 154.08631482 2.19129718 179.04318724 2 204 C1.67 204 1.34 204 1 204 C0.67 136.68 0.34 69.36 0 0 Z " fill="#3F3E3A" transform="translate(230,387)"/>
<path d="M0 0 C0 3 0 3 -1.2578125 4.54296875 C-5.66739868 8.42672561 -10.30686418 11.55886858 -15.375 14.5 C-15.99391113 14.86246826 -16.61282227 15.22493652 -17.25048828 15.59838867 C-18.79743182 16.46686689 -20.39594418 17.24217835 -22 18 C-22.66 17.67 -23.32 17.34 -24 17 C-22.1875 15 -22.1875 15 -20 13 C-19.01 13 -18.02 13 -17 13 C-17 12.01 -17 11.02 -17 10 C-16.2575 9.855625 -15.515 9.71125 -14.75 9.5625 C-13.8425 9.376875 -12.935 9.19125 -12 9 C-11.2575 8.87625 -10.515 8.7525 -9.75 8.625 C-9.1725 8.41875 -8.595 8.2125 -8 8 C-7.67 7.01 -7.34 6.02 -7 5 C-5.6846659 4.29848848 -4.34882408 3.63474075 -3 3 C-1.29078411 1.4587688 -1.29078411 1.4587688 0 0 Z " fill="#2C2C2A" transform="translate(493,457)"/>
<path d="M0 0 C0.33 0.66 0.66 1.32 1 2 C-0.59910868 3.00806851 -2.20448262 4.00620385 -3.8125 5 C-5.15248047 5.8353125 -5.15248047 5.8353125 -6.51953125 6.6875 C-9 8 -9 8 -12 8 C-12 7.01 -12 6.02 -12 5 C-11.13375 4.731875 -10.2675 4.46375 -9.375 4.1875 C-6.08208036 3.02888013 -3.08872125 1.61790161 0 0 Z " fill="#3E3D3C" transform="translate(285,583)"/>
<path d="M0 0 C0.33 0.66 0.66 1.32 1 2 C3.64 1.34 6.28 0.68 9 0 C9 0.66 9 1.32 9 2 C5.37 3.32 1.74 4.64 -2 6 C-1.34 4.02 -0.68 2.04 0 0 Z " fill="#242422" transform="translate(219,145)"/>
<path d="M0 0 C-0.33 0.99 -0.66 1.98 -1 3 C-2.9375 3.5625 -2.9375 3.5625 -5 4 C-5.66 4.66 -6.32 5.32 -7 6 C-7 5.34 -7 4.68 -7 4 C-7.99 3.67 -8.98 3.34 -10 3 C-8.70990357 2.49596232 -7.41786211 1.99690074 -6.125 1.5 C-5.04605469 1.08234375 -5.04605469 1.08234375 -3.9453125 0.65625 C-2 0 -2 0 0 0 Z " fill="#3A3A2A" transform="translate(52,209)"/>
</svg>
