<?xml version="1.0" encoding="UTF-8"?>
<svg version="1.1" xmlns="http://www.w3.org/2000/svg" width="1047" height="1008">
<path d="M0 0 C14.56176804 5.60068002 14.56176804 5.60068002 19.625 8.9375 C23.45628794 11.40472126 27.2487185 13.6907744 31.3125 15.75 C42.89052594 21.97783028 53.06180807 30.70124483 62.546875 39.72265625 C64.89887864 41.99888224 64.89887864 41.99888224 67.328125 43.68359375 C67.87984375 44.11800781 68.4315625 44.55242187 69 45 C69 45.66 69 46.32 69 47 C69.66 47 70.32 47 71 47 C71 47.66 71 48.32 71 49 C71.598125 49.268125 72.19625 49.53625 72.8125 49.8125 C74.99847854 50.99917406 76.41332594 52.09599113 78 54 C78 54.66 78 55.32 78 56 C78.5878125 56.25910156 79.175625 56.51820313 79.78125 56.78515625 C82.14917204 58.08167694 83.61635081 59.51667352 85.5 61.4375 C89.57654853 65.04624788 93.03258482 66.11310814 98.296875 67.2109375 C132.44430069 74.48707673 164.37554466 89.53052077 191.36279297 111.6640625 C193.00133047 113.00108564 194.65602703 114.31523843 196.31640625 115.625 C197.32574219 116.429375 198.33507812 117.23375 199.375 118.0625 C200.26960938 118.77535156 201.16421875 119.48820312 202.0859375 120.22265625 C202.71757813 120.80917969 203.34921875 121.39570313 204 122 C204 122.66 204 123.32 204 124 C204.99 124.33 205.98 124.66 207 125 C207 125.66 207 126.32 207 127 C207.66 127 208.32 127 209 127 C209 127.66 209 128.32 209 129 C209.66 129 210.32 129 211 129 C212.375 130.328125 212.375 130.328125 214 132.25 C214.62132812 132.98347656 215.24265625 133.71695313 215.8828125 134.47265625 C216.58148437 135.30667969 217.28015625 136.14070312 218 137 C218.78117187 137.90621094 219.56234375 138.81242188 220.3671875 139.74609375 C228.9370713 149.79768644 236.54102501 160.45630001 243 172 C243.36206543 172.64646484 243.72413086 173.29292969 244.09716797 173.95898438 C264.90354828 211.42891877 273.12991494 251.21986712 273.16113281 293.90209961 C273.16577856 295.41693233 273.17080546 296.93176392 273.17617798 298.44659424 C273.18911764 302.50603858 273.19570777 306.56546657 273.20018864 310.62492824 C273.20314383 313.16855439 273.20725245 315.71217628 273.21169281 318.25580025 C273.22530636 326.23757271 273.23500817 334.21933517 273.2388947 342.20111841 C273.24338912 351.37556461 273.26102664 360.54986286 273.2898953 369.72426409 C273.31153472 376.85078606 273.32159985 383.97726639 273.32293582 391.10382086 C273.32398032 395.34664085 273.3298149 399.58932057 273.34775543 403.83210564 C273.36428009 407.81564522 273.3663705 411.79893949 273.35761642 415.78250122 C273.35684895 417.23810549 273.36115029 418.69372326 273.37107468 420.1492939 C273.441837 431.17894667 272.83299322 439.91770135 265.04736328 448.16455078 C261.5077086 451.33783052 257.57222351 453.62497225 253.4375 455.9375 C251.65515266 456.96815675 249.87390701 458.00072095 248.09375 459.03515625 C247.22621094 459.53547363 246.35867188 460.03579102 245.46484375 460.55126953 C241.01739397 463.16529162 236.73168539 466.0166976 232.43359375 468.8671875 C228.70121036 471.26108887 224.78828084 473.31511822 220.88842773 475.42041016 C216.30261913 477.92824395 211.80744783 480.58364279 207.3125 483.25 C206.36205811 483.81211182 205.41161621 484.37422363 204.43237305 484.95336914 C198.01130619 488.76559052 191.66517685 492.6821806 185.35595703 496.67602539 C180.8596313 499.50711019 176.26867522 502.08313946 171.57421875 504.57421875 C168.80341397 506.108883 166.15865333 507.77881258 163.5 509.5 C159.10461777 512.34480642 154.62818683 514.90932245 149.99609375 517.34765625 C146.56256218 519.24124668 143.21415496 521.25497598 139.85717773 523.28051758 C135.10849497 526.13832948 130.33463888 528.95365096 125.56469727 531.77578735 C117.69581088 536.43152686 109.8274069 541.08720929 102 545.8125 C95.64273098 549.64297431 89.21490896 553.34454999 82.78125 557.04492188 C77.58486357 560.0464294 72.50657138 563.18535938 67.47265625 566.453125 C63.96019008 568.6504972 60.3233559 570.58829183 56.671875 572.54296875 C53.30540647 574.37877688 50.03887494 576.35814275 46.76171875 578.34765625 C43.36557874 580.37957595 39.93675102 582.35027276 36.5 584.3125 C35.88793701 584.66231934 35.27587402 585.01213867 34.64526367 585.37255859 C28.66700266 588.77839647 24.90042791 589.5944984 18 589 C13.04264829 587.16394381 9.35205686 584.64038194 6.90718842 579.8658886 C5.7544218 576.22419672 5.71817756 572.79974259 5.73498535 569.02078247 C5.72841345 567.82355979 5.72841345 567.82355979 5.72170877 566.6021508 C5.70939696 563.93018529 5.71119639 561.25841636 5.71289062 558.58642578 C5.70686547 556.66916107 5.69994099 554.751899 5.69218445 552.8346405 C5.67729348 548.70516306 5.66854553 544.57573399 5.66447449 540.44623184 C5.65775392 533.90550168 5.63598773 527.36487447 5.61193848 520.82418823 C5.56295727 506.924483 5.53068987 493.02475581 5.5 479.125 C5.46688155 464.15245537 5.4307634 449.17995099 5.37586927 434.20746791 C5.35263861 427.71784143 5.33880878 421.22828586 5.33237457 414.73862195 C5.32639419 410.68113021 5.31226102 406.62369511 5.29603004 402.56623268 C5.29020251 400.69874503 5.28767162 398.83124338 5.28886986 396.96374702 C5.29972931 373.26823611 3.08590961 351.02721743 -14.3125 333.1875 C-29.68527418 318.48401667 -48.33370835 314.70757794 -68.93407249 314.72560501 C-71.41367058 314.72658551 -73.89285282 314.71344979 -76.37239075 314.69662476 C-83.41465063 314.65081872 -90.4568634 314.62578838 -97.49926758 314.61914062 C-101.83046585 314.61407041 -106.16122497 314.5895503 -110.49227333 314.55381393 C-112.12297212 314.54414623 -113.75373232 314.54161105 -115.38445091 314.54698563 C-129.63058396 314.59173432 -143.33853214 312.92988771 -155.9375 305.6875 C-156.64495361 305.29578613 -157.35240723 304.90407227 -158.08129883 304.50048828 C-166.07573601 299.9803336 -173.79018962 294.74320837 -179 287 C-179 286.34 -179 285.68 -179 285 C-179.66 285 -180.32 285 -181 285 C-194.22194327 269.28782526 -203.11170725 249.15197534 -210 230 C-210.30728027 229.15228027 -210.61456055 228.30456055 -210.93115234 227.43115234 C-211.82553067 224.93889366 -212.69983578 222.44089787 -213.5625 219.9375 C-213.82659668 219.18114258 -214.09069336 218.42478516 -214.36279297 217.64550781 C-216.11926714 212.35780141 -216.11926714 212.35780141 -215 209 C-208.60645741 205.74548735 -201.40651684 203.78303918 -194.5625 201.6875 C-186.89621466 199.31625751 -179.3060099 196.75259202 -171.72460938 194.12426758 C-167.91347876 192.80354041 -164.09945251 191.49123955 -160.28515625 190.1796875 C-159.11885178 189.77861786 -159.11885178 189.77861786 -157.9289856 189.3694458 C-149.46978146 186.46606788 -140.98315402 183.6464623 -132.4928894 180.83547974 C-124.39722394 178.15414338 -116.31753373 175.43225103 -108.2578125 172.64453125 C-107.44991272 172.36547943 -106.64201294 172.08642761 -105.80963135 171.79891968 C-101.88066143 170.44115098 -97.95362533 169.07815668 -94.02929688 167.70703125 C-92.61594158 167.21728582 -91.20253294 166.72769427 -89.7890625 166.23828125 C-88.54850098 165.80555908 -87.30793945 165.37283691 -86.02978516 164.92700195 C-83 164 -83 164 -80 164 C-79.75507813 163.319375 -79.51015625 162.63875 -79.2578125 161.9375 C-77.75693801 158.43235212 -75.86092957 155.24360107 -73.875 152 C-73.47684082 151.34354492 -73.07868164 150.68708984 -72.66845703 150.01074219 C-71.44978549 148.00459903 -70.22552733 146.00196076 -69 144 C-68.46052734 143.11538086 -68.46052734 143.11538086 -67.91015625 142.21289062 C-66.25392101 139.49728982 -64.58818794 136.78813565 -62.91015625 134.0859375 C-61.63023839 132.01817654 -60.36730624 129.93981046 -59.12109375 127.8515625 C-58.22583984 126.37816406 -58.22583984 126.37816406 -57.3125 124.875 C-56.79300781 124.00617188 -56.27351562 123.13734375 -55.73828125 122.2421875 C-52.17794848 117.64975827 -46.71823164 115.90767736 -41.5 113.6875 C-36.39891259 111.49174103 -31.33677455 109.2433243 -26.3125 106.875 C-18.06499962 103.03847619 -9.625651 99.875217 -1 97 C-0.67 64.99 -0.34 32.98 0 0 Z M30 53 C30 74.78 30 96.56 30 119 C16.24657574 125.87671213 16.24657574 125.87671213 9.0859375 128.69140625 C8.30537994 129.00399887 7.52482239 129.31659149 6.72061157 129.63865662 C4.27398405 130.61814324 1.82483701 131.59107157 -0.625 132.5625 C-6.11325657 134.74121426 -11.59466404 136.93316885 -17.04943848 139.19464111 C-18.74877213 139.89627161 -20.45535281 140.58029891 -22.16308594 141.26123047 C-28.73619744 144.13466137 -31.56805369 147.80673151 -35 154 C-36.04731215 155.73438332 -37.09686096 157.46741765 -38.1484375 159.19921875 C-39.22674045 161.02700738 -40.30219229 162.85648058 -41.375 164.6875 C-41.93936768 165.6455957 -42.50373535 166.60369141 -43.08520508 167.59082031 C-46.96585193 174.19263554 -50.77714241 180.83017356 -54.51171875 187.515625 C-57.2166584 192.03095733 -60.26042274 192.90528686 -65.05859375 194.3984375 C-65.78254333 194.62955734 -66.50649292 194.86067719 -67.25238037 195.09880066 C-68.82308887 195.5999488 -70.39462898 196.0984962 -71.96688843 196.59475708 C-76.16464656 197.92044951 -80.35591463 199.26627814 -84.546875 200.61328125 C-85.8410157 201.02884529 -85.8410157 201.02884529 -87.16130066 201.45280457 C-97.67626369 204.84263287 -108.11471296 208.45288938 -118.55053711 212.07763672 C-119.9230061 212.55308364 -121.29548304 213.0285076 -122.66796875 213.50390625 C-123.31208206 213.72851028 -123.95619537 213.95311432 -124.61982727 214.18452454 C-129.10989977 215.73662626 -133.62787346 217.07547388 -138.23413086 218.23583984 C-140.38213543 218.92965259 -140.38213543 218.92965259 -141.375 222.0625 C-141.684375 224.0115625 -141.684375 224.0115625 -142 226 C-144.02099079 232.26711286 -146.6257758 237.33014502 -150.828125 242.40625 C-152.19746348 243.93884803 -152.19746348 243.93884803 -152 246 C-153.11375 246.4021875 -153.11375 246.4021875 -154.25 246.8125 C-156.86636554 247.94229421 -158.80187111 249.20893202 -161 251 C-159.8091207 260.20076607 -151.20048711 267.27176814 -144.5234375 273.0859375 C-137.2896654 278.57285442 -129.92938358 280.10483365 -120.98510742 280.17358398 C-119.95454727 280.1836145 -119.95454727 280.1836145 -118.90316772 280.19384766 C-117.41582667 280.20785287 -115.92846469 280.21976116 -114.44109154 280.22979546 C-112.07127323 280.24633237 -109.7016055 280.2695821 -107.3318634 280.29469299 C-100.59509958 280.36506417 -93.85826974 280.42503919 -87.12133789 280.47680664 C-82.99166631 280.50901124 -78.86216265 280.55039527 -74.73262978 280.59700203 C-73.17450362 280.61279311 -71.61633889 280.62521696 -70.05815697 280.63390923 C-38.65458315 280.8114135 -12.24840164 288.7383314 11.1640625 310.10546875 C13.81614634 312.84219356 15.84438157 315.86455502 18 319 C18.66 319 19.32 319 20 319 C20.27199219 319.74121094 20.54398438 320.48242188 20.82421875 321.24609375 C21.932801 323.84260698 23.15544848 325.79334501 24.8125 328.0625 C36.46639942 345.21726678 39.29342595 365.93015216 39.31884766 386.12963867 C39.32816199 387.83567776 39.33833286 389.54171236 39.34928894 391.2477417 C39.37643343 395.84817378 39.39169189 400.4485755 39.40471697 405.04906631 C39.42041603 409.86838342 39.44718443 414.68763917 39.4727478 419.50691223 C39.51941616 428.61905107 39.55621785 437.73120162 39.58942068 446.84339839 C39.62772675 457.22317968 39.67711453 467.60289916 39.72740483 477.98262823 C39.83054693 499.32170642 39.91986463 520.66082381 40 542 C40.96453598 541.44860352 41.92907196 540.89720703 42.9228363 540.32910156 C44.19912488 539.59960532 45.4754159 538.87011335 46.75170898 538.140625 C47.38615685 537.77791504 48.02060471 537.41520508 48.67427826 537.04150391 C51.77050177 535.27190941 54.86784991 533.50449562 57.97265625 531.75 C66.35198086 527.00418783 74.56138246 522.01370721 82.73339844 516.91943359 C84.46680487 515.84002476 86.20211466 514.76372344 87.9375 513.6875 C88.95714844 513.05199219 89.97679687 512.41648437 91.02734375 511.76171875 C94 510 94 510 97.31640625 508.39453125 C100.10527541 507.27899101 100.10527541 507.27899101 101 505 C101.09746718 502.63082455 101.13458842 500.29109373 101.12698364 497.92167664 C101.12932363 496.81572064 101.12932363 496.81572064 101.13171089 495.6874221 C101.13571606 493.20394823 101.13253306 490.72053493 101.12939453 488.23706055 C101.13074882 486.46164921 101.13252891 484.68623816 101.13470459 482.91082764 C101.13927662 478.07811287 101.13749004 473.24541938 101.1343255 468.41270423 C101.13179954 463.36081366 101.13414021 458.30892494 101.13571167 453.2570343 C101.13753317 444.76876498 101.13512809 436.28050434 101.13037109 427.79223633 C101.12493376 417.97660362 101.12668736 408.1609917 101.1321975 398.3453595 C101.13673544 389.92492676 101.13737567 381.50450027 101.13475883 373.08406669 C101.13319914 368.05203493 101.13299378 363.02001293 101.13629532 357.9879818 C101.13918372 353.25451561 101.13718045 348.52107621 101.13140106 343.78761292 C101.13007845 342.04976254 101.13045914 340.31190992 101.13266373 338.57406044 C101.13539491 336.20243461 101.13196988 333.83089465 101.12698364 331.45927429 C101.13032973 330.4267745 101.13032973 330.4267745 101.13374341 329.37341613 C101.11912521 325.7901733 100.84332115 322.48561225 100 319 C92.00242918 322.79075611 84.38084594 327.032783 76.78930664 331.57177734 C76.09571045 331.98637207 75.40211426 332.4009668 74.6875 332.828125 C74.07261719 333.1984082 73.45773437 333.56869141 72.82421875 333.95019531 C70.91776682 335.0473237 68.976086 336.03485866 67 337 C69.9688247 332.91106927 72.99170497 328.94412414 76.375 325.1875 C92.76600731 306.64919916 106.4301526 283.51238192 114.31005859 260.04980469 C114.77910631 258.65627155 115.2590215 257.26635919 115.74853516 255.87988281 C123.77802711 233.12880808 127.18765674 209.85045998 127.18530273 185.8137207 C127.18748057 183.33462107 127.20567429 180.85597402 127.22460938 178.37695312 C127.91936663 157.37713099 127.91936663 157.37713099 119.4375 139.125 C117.28769798 136.78095493 117.28769798 136.78095493 115 137 C115 136.34 115 135.68 115 135 C114.34 135 113.68 135 113 135 C113 134.34 113 133.68 113 133 C112.34 133 111.68 133 111 133 C111 132.34 111 131.68 111 131 C110.34 131 109.68 131 109 131 C108.5978125 130.1028125 108.5978125 130.1028125 108.1875 129.1875 C107.00082594 127.00152146 105.90400887 125.58667406 104 124 C103.34 124 102.68 124 102 124 C101.75922729 123.43456482 101.51845459 122.86912964 101.27038574 122.28656006 C99.7389709 119.53017521 97.90228138 117.64798677 95.67382812 115.41503906 C94.77950073 114.51440735 93.88517334 113.61377563 92.96374512 112.68585205 C91.9865015 111.71218727 91.00899689 110.73878439 90.03125 109.765625 C89.02969576 108.76272319 88.02843855 107.75952468 87.02746582 106.75604248 C84.93251701 104.65814945 82.83400385 102.56390617 80.73291016 100.47216797 C78.03582072 97.78650212 75.34784814 95.09191822 72.6624527 92.39456558 C70.59863217 90.32353264 68.53008999 88.25726884 66.46006775 86.19243622 C65.46659889 85.20030405 64.47462053 84.20667711 63.48414612 83.21155548 C62.10298439 81.8253357 60.71475049 80.44617301 59.32617188 79.06738281 C58.14275208 77.88634979 58.14275208 77.88634979 56.9354248 76.68145752 C55.17567015 74.78138636 55.17567015 74.78138636 53 75 C53 74.34 53 73.68 53 73 C51.58352329 71.5676722 51.58352329 71.5676722 49.6875 70.0625 C45.42465257 66.4631011 41.5384439 62.5813202 37.68237305 58.55688477 C36.49090704 57.33509286 35.24906136 56.16284669 34 55 C33.34 55 32.68 55 32 55 C32 54.34 32 53.68 32 53 C31.34 53 30.68 53 30 53 Z M164.3125 274.25 C156.4166961 283.63960464 152.17693218 292.49826716 153 305 C154.00519332 315.05193322 158.36765327 323.32169661 166 330 C166.55429687 330.35964844 167.10859375 330.71929688 167.6796875 331.08984375 C169.375 332.25 169.375 332.25 172 335 C172.11299133 336.87612915 172.11299133 336.87612915 171.7980957 339.02978516 C171.682211 339.83103821 171.56632629 340.63229126 171.44692993 341.45782471 C170.69129139 345.7559607 169.80660431 350.01456682 168.85546875 354.2734375 C168.64440994 355.23665924 168.43335114 356.19988098 168.21589661 357.19229126 C167.54410635 360.25416845 166.86605237 363.31461504 166.1875 366.375 C165.52099573 369.39996018 164.85583089 372.42521129 164.1912384 375.45059204 C163.77962546 377.32229979 163.36675792 379.19373242 162.95219421 381.06478882 C160.89847978 390.36310592 158.96212391 399.67991143 157 409 C178.78 409 200.56 409 223 409 C221.63875 402.6475 220.2775 396.295 218.875 389.75 C217.53100586 383.46923828 217.53100586 383.46923828 216.95985413 380.80001831 C215.34093369 373.2363717 213.71531629 365.67435533 212.06640625 358.1171875 C211.78748535 356.83360352 211.50856445 355.55001953 211.22119141 354.22753906 C210.70990114 351.87719664 210.19540159 349.5275494 209.67724609 347.17871094 C209.45246582 346.14262695 209.22768555 345.10654297 208.99609375 344.0390625 C208.80200928 343.15428223 208.6079248 342.26950195 208.40795898 341.35791016 C208 339 208 339 208 335 C208.66 334.67 209.32 334.34 210 334 C210 333.34 210 332.68 210 332 C210.5775 331.7525 211.155 331.505 211.75 331.25 C219.34220082 327.03211065 223.63510561 319.07003508 226 311 C228.31325301 300.76890111 226.93625678 290.16712255 221.3125 281.1875 C214.72712632 272.21187958 206.70143817 266.73505257 195.8125 264.5625 C184.09694684 263.04205741 173.28635095 266.73700851 164.3125 274.25 Z " fill="#030303" transform="translate(501,190)"/>
<path d="M0 0 C6.31086426 3.67811107 9.87945173 8.3932276 12.3125 15.25 C13.3009564 21.77381222 12.42770222 27.38327738 9.625 33.3125 C7.25 36.125 7.25 36.125 4.625 38.3125 C3.92375 39.034375 3.2225 39.75625 2.5 40.5 C-3.56455649 44.32330735 -10.19217307 44.92199444 -17.125 43.375 C-24.04386254 41.13131172 -27.82143146 37.16070898 -31.25 30.875 C-33.79102102 22.82843343 -33.82664478 17.06289652 -30.375 9.3125 C-24.14909914 -1.13030496 -11.10835358 -5.12532322 0 0 Z " fill="#080807" transform="translate(527.375,351.6875)"/>
<path d="M0 0 C3.30158825 3.30158825 3.34539285 4.20150226 3.36107081 8.64804 C3.34844134 9.42138208 3.33581187 10.19472416 3.32279968 10.99150085 C3.3212794 11.81485815 3.31975913 12.63821545 3.31819278 13.48652297 C3.30939827 16.25520165 3.27900563 19.02322644 3.2487793 21.79174805 C3.23807493 23.77245436 3.22869702 25.75316823 3.22055054 27.73388672 C3.19462084 33.12005085 3.15006495 38.50592102 3.10225272 43.89192939 C3.05545402 49.51731075 3.02566284 55.14278103 2.99409485 60.76826477 C2.93169551 71.42493413 2.85392256 82.08143407 2.77067453 92.73795873 C2.67665795 104.86831792 2.59970623 116.99876638 2.52421319 129.12925279 C2.36851142 154.08631482 2.19129718 179.04318724 2 204 C1.67 204 1.34 204 1 204 C0.67 136.68 0.34 69.36 0 0 Z " fill="#403F3B" transform="translate(506,563)"/>
</svg>
